<?xml version="1.0" standalone="no"?>
<!DOCTYPE svg PUBLIC "-//W3C//DTD SVG 20010904//EN"
 "http://www.w3.org/TR/2001/REC-SVG-20010904/DTD/svg10.dtd">
<svg version="1.0" xmlns="http://www.w3.org/2000/svg"
 width="16.000000pt" height="16.000000pt" viewBox="0 0 16.000000 16.000000"
 preserveAspectRatio="xMidYMid meet">
<metadata>
Created by potrace 1.11, written by Peter Selinger 2001-2013
</metadata>
<g transform="translate(0.000000,16.000000) scale(0.001778,-0.001778)"
fill="#000000" stroke="none">
<path d="M4475 8374 c-9 -21 -20 -48 -25 -59 -5 -11 -50 -119 -100 -240 -50
-121 -99 -240 -110 -265 -10 -25 -46 -110 -79 -190 -112 -271 -242 -585 -261
-630 -50 -117 -198 -478 -204 -497 -4 -13 -13 -23 -19 -23 -7 0 -115 43 -242
96 -126 53 -266 111 -310 129 -44 18 -217 90 -385 160 -292 122 -389 162 -545
226 -38 15 -160 66 -270 112 -110 46 -201 81 -203 78 -1 -4 180 -447 402 -986
223 -539 404 -980 403 -981 -1 -1 -436 -180 -967 -399 -531 -219 -968 -401
-972 -404 -5 -4 54 -32 130 -64 331 -136 939 -388 957 -396 31 -15 191 -81
535 -223 173 -71 316 -131 317 -131 1 -2 -75 -189 -132 -322 -19 -44 -61 -145
-94 -225 -161 -391 -264 -638 -518 -1249 -35 -84 -63 -157 -61 -161 2 -5 131
45 288 109 157 65 580 240 940 389 360 149 671 278 691 286 l36 15 201 -487
c441 -1069 601 -1455 606 -1460 4 -3 8 -3 10 -1 4 4 228 542 445 1069 40 96
79 189 86 205 8 17 37 86 65 155 28 69 88 213 133 321 l82 196 65 -24 c36 -14
89 -36 118 -49 29 -13 55 -24 58 -24 3 0 24 -9 47 -19 23 -10 132 -56 242
-101 110 -45 214 -88 230 -96 17 -7 55 -23 85 -34 30 -12 78 -32 108 -46 29
-13 55 -24 58 -24 3 0 24 -9 48 -19 23 -11 67 -29 97 -41 30 -11 68 -27 84
-34 17 -8 82 -35 145 -61 63 -26 129 -53 145 -60 69 -31 225 -95 230 -95 2 0
28 -11 57 -24 87 -40 131 -56 135 -52 2 2 -177 441 -398 975 -221 535 -399
974 -397 976 2 3 440 185 973 405 534 220 973 404 978 409 5 5 -20 20 -55 34
-90 35 -645 266 -693 287 -22 10 -62 27 -90 38 -58 23 -625 257 -670 277 -16
8 -86 37 -155 65 -69 28 -150 62 -180 75 -30 13 -67 28 -82 34 l-27 10 40 98
c22 54 44 107 49 118 5 11 55 130 111 265 168 407 235 568 306 740 22 52 66
158 98 235 32 77 91 219 131 315 40 96 71 176 69 178 -2 2 -440 -177 -973
-397 -534 -221 -974 -401 -979 -401 -5 0 -13 12 -19 28 -51 130 -789 1909
-795 1916 -5 6 -15 -7 -24 -30z"/>
</g>
</svg>
