<?xml version="1.0" standalone="no"?>
<!DOCTYPE svg PUBLIC "-//W3C//DTD SVG 20010904//EN"
 "http://www.w3.org/TR/2001/REC-SVG-20010904/DTD/svg10.dtd">
<svg version="1.0" xmlns="http://www.w3.org/2000/svg"
 width="900.000000pt" height="900.000000pt" viewBox="0 0 900.000000 900.000000"
 preserveAspectRatio="xMidYMid meet">
<metadata>
Created by potrace 1.11, written by Peter Selinger 2001-2013
</metadata>
<g transform="translate(0.000000,900.000000) scale(0.100000,-0.100000)"
fill="#000000" stroke="none">
<path d="M4283 7927 c-111 -270 -291 -708 -399 -972 -108 -264 -200 -484 -204
-488 -4 -5 -442 170 -974 389 -532 218 -969 395 -971 392 -4 -4 478 -1167 802
-1935 3 -7 0 -13 -7 -13 -7 0 -89 -32 -184 -71 -190 -79 -370 -155 -401 -169
-11 -5 -76 -32 -145 -60 -69 -29 -138 -58 -155 -65 -16 -7 -86 -37 -155 -65
-69 -28 -144 -60 -167 -71 -24 -10 -46 -19 -49 -19 -3 0 -20 -6 -37 -14 -18
-8 -61 -27 -97 -41 -36 -15 -78 -33 -95 -40 -16 -7 -86 -36 -155 -65 -69 -28
-134 -55 -145 -60 -11 -5 -50 -22 -86 -37 -36 -16 -66 -32 -65 -38 0 -5 430
-187 956 -402 525 -216 962 -396 971 -400 14 -7 -44 -155 -382 -978 -220 -533
-399 -975 -399 -981 0 -11 93 24 205 76 11 5 187 78 390 163 204 85 534 223
735 307 201 84 390 163 420 175 30 13 89 37 129 54 41 17 76 29 77 28 2 -1
184 -437 405 -967 221 -531 405 -968 408 -972 4 -4 186 430 406 965 219 534
400 974 402 976 1 2 444 -177 983 -399 539 -222 982 -401 984 -399 2 2 -80
207 -184 454 -103 248 -285 684 -404 970 -120 285 -218 523 -219 527 -1 5 52
31 118 58 66 28 129 54 140 59 11 6 146 62 300 126 154 64 299 125 322 136 24
10 46 19 49 19 3 0 20 7 37 14 18 8 217 92 442 186 543 227 536 223 527 231
-4 3 -443 185 -977 404 -533 218 -971 398 -972 399 -2 1 177 440 397 975 220
535 400 977 400 982 0 5 -2 9 -4 9 -3 0 -92 -38 -141 -60 -11 -5 -76 -32 -145
-60 -69 -28 -144 -60 -167 -71 -24 -10 -45 -19 -48 -19 -4 0 -25 -8 -48 -19
-78 -34 -237 -101 -242 -101 -3 0 -24 -9 -48 -19 -23 -11 -71 -32 -107 -46
-36 -14 -84 -35 -107 -46 -24 -10 -45 -19 -48 -19 -4 0 -25 -9 -48 -19 -23
-10 -87 -37 -142 -60 -55 -23 -120 -50 -145 -61 -25 -11 -117 -49 -205 -86
-88 -36 -173 -72 -190 -79 -69 -31 -108 -45 -113 -40 -6 5 -148 344 -604 1438
-116 279 -214 507 -217 507 -3 0 -97 -222 -208 -493z"/>
</g>
</svg>
